<svg xmlns="http://www.w3.org/2000/svg" xmlns:xlink="http://www.w3.org/1999/xlink" xmlns:s="https://github.com/nturley/netlistsvg" width="1443" height="386">

  <!-- custom -->

    <style>
      *:not(text):not(.splitjoinBody):not(#bg)
      {
        fill: none !important;
        stroke: white !important;
      }
      text, .splitjoinBody
      {
        fill: white !important;
        stroke: none !important;
      }
    </style>

    <rect
      id="bg"
      width="100%"
      height="100%"
      fill="#151b23"
      stroke="none"
    />

  <!-- custom -->

  <style>svg {
    stroke:#000;
    fill:none;
  }
  text {
    fill:#000;
    stroke:none;
    font-size:10px;
    font-weight: bold;
    font-family: "Courier New", monospace;
  }
  .nodelabel {
    text-anchor: middle;
  }
  .inputPortLabel {
    text-anchor: end;
  }
  .splitjoinBody {
    fill:#000;
  }</style>
  <g s:type="generic" transform="translate(160,22)" s:width="30" s:height="40" id="cell_genblk1.genblk1.gen_lvls[0].gen_lvl_first.genblk1[0].first">
    <text x="15" y="-4" class="nodelabel cell_genblk1.genblk1.gen_lvls[0].gen_lvl_first.genblk1[0].first" s:attribute="ref">mux</text>
    <rect width="30" height="40" s:generic="body" class="cell_genblk1.genblk1.gen_lvls[0].gen_lvl_first.genblk1[0].first"/>
    <g transform="translate(0,10)" s:x="0" s:y="10" s:pid="in0" id="port_genblk1.genblk1.gen_lvls[0].gen_lvl_first.genblk1[0].first~in">
      <text x="-3" y="-4" class="inputPortLabel cell_genblk1.genblk1.gen_lvls[0].gen_lvl_first.genblk1[0].first">in</text>
    </g>
    <g transform="translate(0,30)" s:x="0" s:y="10" s:pid="in0" id="port_genblk1.genblk1.gen_lvls[0].gen_lvl_first.genblk1[0].first~sel">
      <text x="-3" y="-4" class="inputPortLabel cell_genblk1.genblk1.gen_lvls[0].gen_lvl_first.genblk1[0].first">sel</text>
    </g>
    <g transform="translate(30,10)" s:x="30" s:y="10" s:pid="out0" id="port_genblk1.genblk1.gen_lvls[0].gen_lvl_first.genblk1[0].first~out">
      <text x="5" y="-4" style="fill:#000; stroke:none" class="cell_genblk1.genblk1.gen_lvls[0].gen_lvl_first.genblk1[0].first">out</text>
    </g>
  </g>
  <g s:type="generic" transform="translate(160,110)" s:width="30" s:height="40" id="cell_genblk1.genblk1.gen_lvls[0].gen_lvl_first.genblk1[1].first">
    <text x="15" y="-4" class="nodelabel cell_genblk1.genblk1.gen_lvls[0].gen_lvl_first.genblk1[1].first" s:attribute="ref">mux</text>
    <rect width="30" height="40" s:generic="body" class="cell_genblk1.genblk1.gen_lvls[0].gen_lvl_first.genblk1[1].first"/>
    <g transform="translate(0,10)" s:x="0" s:y="10" s:pid="in0" id="port_genblk1.genblk1.gen_lvls[0].gen_lvl_first.genblk1[1].first~in">
      <text x="-3" y="-4" class="inputPortLabel cell_genblk1.genblk1.gen_lvls[0].gen_lvl_first.genblk1[1].first">in</text>
    </g>
    <g transform="translate(0,30)" s:x="0" s:y="10" s:pid="in0" id="port_genblk1.genblk1.gen_lvls[0].gen_lvl_first.genblk1[1].first~sel">
      <text x="-3" y="-4" class="inputPortLabel cell_genblk1.genblk1.gen_lvls[0].gen_lvl_first.genblk1[1].first">sel</text>
    </g>
    <g transform="translate(30,10)" s:x="30" s:y="10" s:pid="out0" id="port_genblk1.genblk1.gen_lvls[0].gen_lvl_first.genblk1[1].first~out">
      <text x="5" y="-4" style="fill:#000; stroke:none" class="cell_genblk1.genblk1.gen_lvls[0].gen_lvl_first.genblk1[1].first">out</text>
    </g>
  </g>
  <g s:type="generic" transform="translate(160,198)" s:width="30" s:height="40" id="cell_genblk1.genblk1.gen_lvls[0].gen_lvl_first.genblk1[2].first">
    <text x="15" y="-4" class="nodelabel cell_genblk1.genblk1.gen_lvls[0].gen_lvl_first.genblk1[2].first" s:attribute="ref">mux</text>
    <rect width="30" height="40" s:generic="body" class="cell_genblk1.genblk1.gen_lvls[0].gen_lvl_first.genblk1[2].first"/>
    <g transform="translate(0,10)" s:x="0" s:y="10" s:pid="in0" id="port_genblk1.genblk1.gen_lvls[0].gen_lvl_first.genblk1[2].first~in">
      <text x="-3" y="-4" class="inputPortLabel cell_genblk1.genblk1.gen_lvls[0].gen_lvl_first.genblk1[2].first">in</text>
    </g>
    <g transform="translate(0,30)" s:x="0" s:y="10" s:pid="in0" id="port_genblk1.genblk1.gen_lvls[0].gen_lvl_first.genblk1[2].first~sel">
      <text x="-3" y="-4" class="inputPortLabel cell_genblk1.genblk1.gen_lvls[0].gen_lvl_first.genblk1[2].first">sel</text>
    </g>
    <g transform="translate(30,10)" s:x="30" s:y="10" s:pid="out0" id="port_genblk1.genblk1.gen_lvls[0].gen_lvl_first.genblk1[2].first~out">
      <text x="5" y="-4" style="fill:#000; stroke:none" class="cell_genblk1.genblk1.gen_lvls[0].gen_lvl_first.genblk1[2].first">out</text>
    </g>
  </g>
  <g s:type="generic" transform="translate(160,286)" s:width="30" s:height="40" id="cell_genblk1.genblk1.gen_lvls[0].gen_lvl_first.genblk1[3].first">
    <text x="15" y="-4" class="nodelabel cell_genblk1.genblk1.gen_lvls[0].gen_lvl_first.genblk1[3].first" s:attribute="ref">mux</text>
    <rect width="30" height="40" s:generic="body" class="cell_genblk1.genblk1.gen_lvls[0].gen_lvl_first.genblk1[3].first"/>
    <g transform="translate(0,10)" s:x="0" s:y="10" s:pid="in0" id="port_genblk1.genblk1.gen_lvls[0].gen_lvl_first.genblk1[3].first~in">
      <text x="-3" y="-4" class="inputPortLabel cell_genblk1.genblk1.gen_lvls[0].gen_lvl_first.genblk1[3].first">in</text>
    </g>
    <g transform="translate(0,30)" s:x="0" s:y="10" s:pid="in0" id="port_genblk1.genblk1.gen_lvls[0].gen_lvl_first.genblk1[3].first~sel">
      <text x="-3" y="-4" class="inputPortLabel cell_genblk1.genblk1.gen_lvls[0].gen_lvl_first.genblk1[3].first">sel</text>
    </g>
    <g transform="translate(30,10)" s:x="30" s:y="10" s:pid="out0" id="port_genblk1.genblk1.gen_lvls[0].gen_lvl_first.genblk1[3].first~out">
      <text x="5" y="-4" style="fill:#000; stroke:none" class="cell_genblk1.genblk1.gen_lvls[0].gen_lvl_first.genblk1[3].first">out</text>
    </g>
  </g>
  <g s:type="generic" transform="translate(610,120)" s:width="30" s:height="40" id="cell_genblk1.genblk1.gen_lvls[1].genblk1.gen_lvl.genblk1[0].m">
    <text x="15" y="-4" class="nodelabel cell_genblk1.genblk1.gen_lvls[1].genblk1.gen_lvl.genblk1[0].m" s:attribute="ref">mux</text>
    <rect width="30" height="40" s:generic="body" class="cell_genblk1.genblk1.gen_lvls[1].genblk1.gen_lvl.genblk1[0].m"/>
    <g transform="translate(0,10)" s:x="0" s:y="10" s:pid="in0" id="port_genblk1.genblk1.gen_lvls[1].genblk1.gen_lvl.genblk1[0].m~in">
      <text x="-3" y="-4" class="inputPortLabel cell_genblk1.genblk1.gen_lvls[1].genblk1.gen_lvl.genblk1[0].m">in</text>
    </g>
    <g transform="translate(0,30)" s:x="0" s:y="10" s:pid="in0" id="port_genblk1.genblk1.gen_lvls[1].genblk1.gen_lvl.genblk1[0].m~sel">
      <text x="-3" y="-4" class="inputPortLabel cell_genblk1.genblk1.gen_lvls[1].genblk1.gen_lvl.genblk1[0].m">sel</text>
    </g>
    <g transform="translate(30,10)" s:x="30" s:y="10" s:pid="out0" id="port_genblk1.genblk1.gen_lvls[1].genblk1.gen_lvl.genblk1[0].m~out">
      <text x="5" y="-4" style="fill:#000; stroke:none" class="cell_genblk1.genblk1.gen_lvls[1].genblk1.gen_lvl.genblk1[0].m">out</text>
    </g>
  </g>
  <g s:type="generic" transform="translate(610,308.5)" s:width="30" s:height="40" id="cell_genblk1.genblk1.gen_lvls[1].genblk1.gen_lvl.genblk1[1].m">
    <text x="15" y="-4" class="nodelabel cell_genblk1.genblk1.gen_lvls[1].genblk1.gen_lvl.genblk1[1].m" s:attribute="ref">mux</text>
    <rect width="30" height="40" s:generic="body" class="cell_genblk1.genblk1.gen_lvls[1].genblk1.gen_lvl.genblk1[1].m"/>
    <g transform="translate(0,10)" s:x="0" s:y="10" s:pid="in0" id="port_genblk1.genblk1.gen_lvls[1].genblk1.gen_lvl.genblk1[1].m~in">
      <text x="-3" y="-4" class="inputPortLabel cell_genblk1.genblk1.gen_lvls[1].genblk1.gen_lvl.genblk1[1].m">in</text>
    </g>
    <g transform="translate(0,30)" s:x="0" s:y="10" s:pid="in0" id="port_genblk1.genblk1.gen_lvls[1].genblk1.gen_lvl.genblk1[1].m~sel">
      <text x="-3" y="-4" class="inputPortLabel cell_genblk1.genblk1.gen_lvls[1].genblk1.gen_lvl.genblk1[1].m">sel</text>
    </g>
    <g transform="translate(30,10)" s:x="30" s:y="10" s:pid="out0" id="port_genblk1.genblk1.gen_lvls[1].genblk1.gen_lvl.genblk1[1].m~out">
      <text x="5" y="-4" style="fill:#000; stroke:none" class="cell_genblk1.genblk1.gen_lvls[1].genblk1.gen_lvl.genblk1[1].m">out</text>
    </g>
  </g>
  <g s:type="generic" transform="translate(1048,331)" s:width="30" s:height="40" id="cell_genblk1.genblk1.gen_lvls[2].genblk1.gen_lvl_last.last">
    <text x="15" y="-4" class="nodelabel cell_genblk1.genblk1.gen_lvls[2].genblk1.gen_lvl_last.last" s:attribute="ref">mux</text>
    <rect width="30" height="40" s:generic="body" class="cell_genblk1.genblk1.gen_lvls[2].genblk1.gen_lvl_last.last"/>
    <g transform="translate(0,10)" s:x="0" s:y="10" s:pid="in0" id="port_genblk1.genblk1.gen_lvls[2].genblk1.gen_lvl_last.last~in">
      <text x="-3" y="-4" class="inputPortLabel cell_genblk1.genblk1.gen_lvls[2].genblk1.gen_lvl_last.last">in</text>
    </g>
    <g transform="translate(0,30)" s:x="0" s:y="10" s:pid="in0" id="port_genblk1.genblk1.gen_lvls[2].genblk1.gen_lvl_last.last~sel">
      <text x="-3" y="-4" class="inputPortLabel cell_genblk1.genblk1.gen_lvls[2].genblk1.gen_lvl_last.last">sel</text>
    </g>
    <g transform="translate(30,10)" s:x="30" s:y="10" s:pid="out0" id="port_genblk1.genblk1.gen_lvls[2].genblk1.gen_lvl_last.last~out">
      <text x="5" y="-4" style="fill:#000; stroke:none" class="cell_genblk1.genblk1.gen_lvls[2].genblk1.gen_lvl_last.last">out</text>
    </g>
  </g>
  <g s:type="inputExt" transform="translate(12,168.5)" s:width="30" s:height="20" id="cell_in">
    <text x="15" y="-4" class="nodelabel cell_in" s:attribute="ref">in</text>
    <s:alias val="$_inputExt_"/>
    <path d="M0,0 L0,20 L15,20 L30,10 L15,0 Z" class="cell_in"/>
    <g s:x="28" s:y="10" s:pid="Y"/>
  </g>
  <g s:type="inputExt" transform="translate(12,316.5)" s:width="30" s:height="20" id="cell_sel">
    <text x="15" y="-4" class="nodelabel cell_sel" s:attribute="ref">sel</text>
    <s:alias val="$_inputExt_"/>
    <path d="M0,0 L0,20 L15,20 L30,10 L15,0 Z" class="cell_sel"/>
    <g s:x="28" s:y="10" s:pid="Y"/>
  </g>
  <g s:type="outputExt" transform="translate(1401,331.5)" s:width="30" s:height="20" id="cell_out">
    <text x="15" y="-4" class="nodelabel cell_out" s:attribute="ref">out</text>
    <s:alias val="$_outputExt_"/>
    <path d="M30,0 L30,20 L15,20 L0,10 L15,0 Z" class="cell_out"/>
    <g s:x="0" s:y="10" s:pid="A"/>
  </g>
  <g s:type="join" transform="translate(550,110)" s:width="4" s:height="40" id="cell_$join$,15,14,">
    <rect width="5" height="40" class="splitjoinBody" s:generic="body"/>
    <s:alias val="$_join_"/>
    <g s:x="5" s:y="20" s:pid="out"/>
    <g transform="translate(0,10)" s:x="0" s:y="10" s:pid="in0">
      <text x="-3" y="-4" class="inputPortLabel">0</text>
    </g>
    <g transform="translate(0,30)" s:x="0" s:y="10" s:pid="in0">
      <text x="-3" y="-4" class="inputPortLabel">1</text>
    </g>
  </g>
  <g s:type="join" transform="translate(550,286)" s:width="4" s:height="40" id="cell_$join$,17,16,">
    <rect width="5" height="40" class="splitjoinBody" s:generic="body"/>
    <s:alias val="$_join_"/>
    <g s:x="5" s:y="20" s:pid="out"/>
    <g transform="translate(0,10)" s:x="0" s:y="10" s:pid="in0">
      <text x="-3" y="-4" class="inputPortLabel">0</text>
    </g>
    <g transform="translate(0,30)" s:x="0" s:y="10" s:pid="in0">
      <text x="-3" y="-4" class="inputPortLabel">1</text>
    </g>
  </g>
  <g s:type="join" transform="translate(988,308.5)" s:width="4" s:height="40" id="cell_$join$,19,18,">
    <rect width="5" height="40" class="splitjoinBody" s:generic="body"/>
    <s:alias val="$_join_"/>
    <g s:x="5" s:y="20" s:pid="out"/>
    <g transform="translate(0,10)" s:x="0" s:y="10" s:pid="in0">
      <text x="-3" y="-4" class="inputPortLabel">0</text>
    </g>
    <g transform="translate(0,30)" s:x="0" s:y="10" s:pid="in0">
      <text x="-3" y="-4" class="inputPortLabel">1</text>
    </g>
  </g>
  <g s:type="split" transform="translate(77,158)" s:width="5" s:height="40" id="cell_$split$,2,3,4,5,6,7,8,9,">
    <rect width="5" height="80" class="splitjoinBody" s:generic="body"/>
    <s:alias val="$_split_"/>
    <g s:x="0" s:y="20" s:pid="in"/>
    <g transform="translate(4,10)" s:x="4" s:y="10" s:pid="out0">
      <text x="5" y="-4">6:7</text>
    </g>
    <g transform="translate(4,30)" s:x="4" s:y="10" s:pid="out0">
      <text x="5" y="-4">4:5</text>
    </g>
    <g transform="translate(4,50)" s:x="4" s:y="10" s:pid="out0">
      <text x="5" y="-4">2:3</text>
    </g>
    <g transform="translate(4,70)" s:x="4" s:y="10" s:pid="out0">
      <text x="5" y="-4">0:1</text>
    </g>
  </g>
  <g s:type="split" transform="translate(81.75,306)" s:width="5" s:height="40" id="cell_$split$,10,11,12,">
    <rect width="5" height="60" class="splitjoinBody" s:generic="body"/>
    <s:alias val="$_split_"/>
    <g s:x="0" s:y="20" s:pid="in"/>
    <g transform="translate(4,10)" s:x="4" s:y="10" s:pid="out0">
      <text x="5" y="-4">2</text>
    </g>
    <g transform="translate(4,30)" s:x="4" s:y="10" s:pid="out0">
      <text x="5" y="-4">1</text>
    </g>
    <g transform="translate(4,50)" s:x="4" s:y="10" s:pid="out0">
      <text x="5" y="-4">0</text>
    </g>
  </g>
  <line x1="82" x2="111" y1="168.5" y2="168.5" class="net_8,9"/>
  <line x1="111" x2="111" y1="168.5" y2="32.5" class="net_8,9"/>
  <line x1="111" x2="160" y1="32.5" y2="32.5" class="net_8,9"/>
  <line x1="86.75" x2="131" y1="316.5" y2="316.5" class="net_12"/>
  <line x1="131" x2="131" y1="316.5" y2="52.5" class="net_12"/>
  <circle cx="131" cy="316.5" r="2" style="fill:#000" class="net_12"/>
  <line x1="131" x2="160" y1="52.5" y2="52.5" class="net_12"/>
  <line x1="86.75" x2="131" y1="316.5" y2="316.5" class="net_12"/>
  <line x1="131" x2="131" y1="316.5" y2="140.5" class="net_12"/>
  <circle cx="131" cy="140.5" r="2" style="fill:#000" class="net_12"/>
  <line x1="131" x2="160" y1="140.5" y2="140.5" class="net_12"/>
  <line x1="86.75" x2="131" y1="316.5" y2="316.5" class="net_12"/>
  <line x1="131" x2="131" y1="316.5" y2="228.5" class="net_12"/>
  <circle cx="131" cy="228.5" r="2" style="fill:#000" class="net_12"/>
  <line x1="131" x2="160" y1="228.5" y2="228.5" class="net_12"/>
  <line x1="86.75" x2="160" y1="316.5" y2="316.5" class="net_12"/>
  <line x1="82" x2="121" y1="188.5" y2="188.5" class="net_6,7"/>
  <line x1="121" x2="121" y1="188.5" y2="120.5" class="net_6,7"/>
  <line x1="121" x2="160" y1="120.5" y2="120.5" class="net_6,7"/>
  <line x1="82" x2="160" y1="208.5" y2="208.5" class="net_4,5"/>
  <line x1="82" x2="111" y1="228.5" y2="228.5" class="net_2,3"/>
  <line x1="111" x2="111" y1="228.5" y2="296.5" class="net_2,3"/>
  <line x1="111" x2="160" y1="296.5" y2="296.5" class="net_2,3"/>
  <line x1="556" x2="610" y1="130.5" y2="130.5" class="net_15,14"/>
  <line x1="86.75" x2="111" y1="336.5" y2="336.5" class="net_11"/>
  <line x1="111" x2="111" y1="336.5" y2="339" class="net_11"/>
  <line x1="111" x2="566" y1="339" y2="339" class="net_11"/>
  <line x1="566" x2="566" y1="339" y2="150.5" class="net_11"/>
  <circle cx="566" cy="339" r="2" style="fill:#000" class="net_11"/>
  <line x1="566" x2="610" y1="150.5" y2="150.5" class="net_11"/>
  <line x1="86.75" x2="111" y1="336.5" y2="336.5" class="net_11"/>
  <line x1="111" x2="111" y1="336.5" y2="339" class="net_11"/>
  <line x1="111" x2="610" y1="339" y2="339" class="net_11"/>
  <line x1="556" x2="576" y1="306.5" y2="306.5" class="net_17,16"/>
  <line x1="576" x2="576" y1="306.5" y2="319" class="net_17,16"/>
  <line x1="576" x2="610" y1="319" y2="319" class="net_17,16"/>
  <line x1="994" x2="1004" y1="329" y2="329" class="net_19,18"/>
  <line x1="1004" x2="1004" y1="329" y2="341.5" class="net_19,18"/>
  <line x1="1004" x2="1048" y1="341.5" y2="341.5" class="net_19,18"/>
  <line x1="86.75" x2="111" y1="356.5" y2="356.5" class="net_10"/>
  <line x1="111" x2="111" y1="356.5" y2="361.5" class="net_10"/>
  <line x1="111" x2="1048" y1="361.5" y2="361.5" class="net_10"/>
  <line x1="1079" x2="1401" y1="341.5" y2="341.5" class="net_13"/>
  <line x1="191" x2="550" y1="120.5" y2="120.5" class="net_15"/>
  <line x1="191" x2="518" y1="32.5" y2="32.5" class="net_14"/>
  <line x1="518" x2="518" y1="32.5" y2="140.5" class="net_14"/>
  <line x1="518" x2="550" y1="140.5" y2="140.5" class="net_14"/>
  <line x1="191" x2="550" y1="296.5" y2="296.5" class="net_17"/>
  <line x1="191" x2="518" y1="208.5" y2="208.5" class="net_16"/>
  <line x1="518" x2="518" y1="208.5" y2="316.5" class="net_16"/>
  <line x1="518" x2="550" y1="316.5" y2="316.5" class="net_16"/>
  <line x1="641" x2="988" y1="319" y2="319" class="net_19"/>
  <line x1="641" x2="956" y1="130.5" y2="130.5" class="net_18"/>
  <line x1="956" x2="956" y1="130.5" y2="339" class="net_18"/>
  <line x1="956" x2="988" y1="339" y2="339" class="net_18"/>
  <line x1="40" x2="77" y1="178.5" y2="178.5" class="net_2,3,4,5,6,7,8,9"/>
  <line x1="40" x2="81.75" y1="326.5" y2="326.5" class="net_10,11,12"/>
</svg>
